<svg width="20" height="18" viewBox="0 0 20 18" fill="none" xmlns="http://www.w3.org/2000/svg">
<path d="M10 9C8.625 9 7.44792 8.55937 6.46875 7.67812C5.48958 6.79687 5 5.7375 5 4.5C5 3.2625 5.48958 2.20313 6.46875 1.32188C7.44792 0.440625 8.625 0 10 0C11.375 0 12.5521 0.440625 13.5312 1.32188C14.5104 2.20313 15 3.2625 15 4.5C15 5.7375 14.5104 6.79687 13.5312 7.67812C12.5521 8.55937 11.375 9 10 9ZM0 18V14.85C0 14.2125 0.1825 13.6264 0.5475 13.0916C0.9125 12.5569 1.39667 12.1493 2 11.8688C3.29167 11.2875 4.60417 10.8514 5.9375 10.5604C7.27083 10.2694 8.625 10.1243 10 10.125C11.375 10.125 12.7292 10.2705 14.0625 10.5615C15.3958 10.8525 16.7083 11.2882 18 11.8688C18.6042 12.15 19.0887 12.558 19.4537 13.0927C19.8187 13.6275 20.0008 14.2133 20 14.85V18H0Z" fill="white"/>
</svg>
