<svg width="25" height="19" viewBox="0 0 25 19" fill="none" xmlns="http://www.w3.org/2000/svg">
<path d="M19.3182 0C17.375 0 16.1932 0.391875 15.5114 0.724375C14.6364 0.273125 13.6364 0 12.5 0C11.3636 0 10.3636 0.273125 9.48864 0.724375C8.80682 0.391875 7.625 0 5.68182 0C2.27273 0 0 9.5 0 11.875C0 12.8606 1.5 13.7631 3.56818 14.1312C4.29545 16.7913 7.72727 18.8219 11.9318 19V13.9175C11.2614 13.4781 10.2273 12.6825 10.2273 11.875C10.2273 10.6875 12.5 10.6875 12.5 10.6875C12.5 10.6875 14.7727 10.6875 14.7727 11.875C14.7727 12.6825 13.7386 13.4781 13.0682 13.9175V19C17.2727 18.8219 20.7045 16.7913 21.4318 14.1312C23.5 13.7631 25 12.8606 25 11.875C25 9.5 22.7273 0 19.3182 0ZM3.57955 11.7206C3.01136 11.5781 2.56818 11.4119 2.27273 11.2812C2.55682 7.99188 4.77273 2.85 5.73864 2.375C6.35227 2.375 6.81818 2.44625 7.23864 2.50563C4.85227 5.24875 3.90909 9.5475 3.57955 11.7206ZM9.09091 9.5C8.78953 9.5 8.50049 9.37489 8.28738 9.15219C8.07427 8.92949 7.95455 8.62744 7.95455 8.3125C7.95455 7.67125 8.46591 7.125 9.09091 7.125C9.39229 7.125 9.68133 7.25011 9.89444 7.47281C10.1075 7.69551 10.2273 7.99756 10.2273 8.3125C10.2273 8.9775 9.71591 9.5 9.09091 9.5ZM15.9091 9.5C15.6077 9.5 15.3187 9.37489 15.1056 9.15219C14.8925 8.92949 14.7727 8.62744 14.7727 8.3125C14.7727 7.67125 15.2841 7.125 15.9091 7.125C16.2105 7.125 16.4995 7.25011 16.7126 7.47281C16.9257 7.69551 17.0455 7.99756 17.0455 8.3125C17.0455 8.9775 16.5341 9.5 15.9091 9.5ZM21.4205 11.7206C21.0909 9.5475 20.1477 5.24875 17.7614 2.50563C18.1818 2.44625 18.6477 2.375 19.2614 2.375C20.2273 2.85 22.4432 7.99188 22.7273 11.2812C22.4432 11.4119 22 11.5781 21.4205 11.7206Z" fill="black"/>
</svg>
