<svg width="21" height="17" viewBox="0 0 21 17" fill="none" xmlns="http://www.w3.org/2000/svg">
<path d="M16.2273 0C14.595 0 13.6023 0.350625 13.0295 0.648125C12.2945 0.244375 11.4545 0 10.5 0C9.54545 0 8.70545 0.244375 7.97045 0.648125C7.39773 0.350625 6.405 0 4.77273 0C1.90909 0 0 8.5 0 10.625C0 11.5069 1.26 12.3144 2.99727 12.6437C3.60818 15.0237 6.49091 16.8406 10.0227 17V12.4525C9.45955 12.0594 8.59091 11.3475 8.59091 10.625C8.59091 9.5625 10.5 9.5625 10.5 9.5625C10.5 9.5625 12.4091 9.5625 12.4091 10.625C12.4091 11.3475 11.5405 12.0594 10.9773 12.4525V17C14.5091 16.8406 17.3918 15.0237 18.0027 12.6437C19.74 12.3144 21 11.5069 21 10.625C21 8.5 19.0909 0 16.2273 0ZM3.00682 10.4869C2.52955 10.3594 2.15727 10.2106 1.90909 10.0938C2.14773 7.15063 4.00909 2.55 4.82045 2.125C5.33591 2.125 5.72727 2.18875 6.08045 2.24188C4.07591 4.69625 3.28364 8.5425 3.00682 10.4869ZM7.63636 8.5C7.3832 8.5 7.14041 8.38806 6.9614 8.1888C6.78239 7.98954 6.68182 7.71929 6.68182 7.4375C6.68182 6.86375 7.11136 6.375 7.63636 6.375C7.88952 6.375 8.13232 6.48694 8.31133 6.6862C8.49034 6.88546 8.59091 7.15571 8.59091 7.4375C8.59091 8.0325 8.16136 8.5 7.63636 8.5ZM13.3636 8.5C13.1105 8.5 12.8677 8.38806 12.6887 8.1888C12.5097 7.98954 12.4091 7.71929 12.4091 7.4375C12.4091 6.86375 12.8386 6.375 13.3636 6.375C13.6168 6.375 13.8596 6.48694 14.0386 6.6862C14.2176 6.88546 14.3182 7.15571 14.3182 7.4375C14.3182 8.0325 13.8886 8.5 13.3636 8.5ZM17.9932 10.4869C17.7164 8.5425 16.9241 4.69625 14.9195 2.24188C15.2727 2.18875 15.6641 2.125 16.1795 2.125C16.9909 2.55 18.8523 7.15063 19.0909 10.0938C18.8523 10.2106 18.48 10.3594 17.9932 10.4869Z" fill="white"/>
</svg>
