<svg width="25" height="29" viewBox="0 0 25 29" fill="none" xmlns="http://www.w3.org/2000/svg">
<g filter="url(#filter0_d_199_262)">
<path fill-rule="evenodd" clip-rule="evenodd" d="M12.5 1.69745e-08C12.2293 -3.64705e-05 11.9617 0.0587509 11.7154 0.172378C11.4691 0.286006 11.2498 0.451817 11.0725 0.658577C10.8952 0.865336 10.7639 1.10821 10.6875 1.37074C10.6112 1.63327 10.5916 1.90932 10.63 2.18018C9.26115 2.58866 8.05976 3.43371 7.20525 4.58914C6.35074 5.74457 5.88897 7.14838 5.88889 8.59091V16.2273H4.94444C4.69396 16.2273 4.45374 16.3278 4.27662 16.5069C4.0995 16.6859 4 16.9287 4 17.1818C4 17.435 4.0995 17.6778 4.27662 17.8568C4.45374 18.0358 4.69396 18.1364 4.94444 18.1364H20.0556C20.306 18.1364 20.5463 18.0358 20.7234 17.8568C20.9005 17.6778 21 17.435 21 17.1818C21 16.9287 20.9005 16.6859 20.7234 16.5069C20.5463 16.3278 20.306 16.2273 20.0556 16.2273H19.1111V8.59091C19.111 7.14838 18.6493 5.74457 17.7948 4.58914C16.9402 3.43371 15.7389 2.58866 14.37 2.18018C14.4084 1.90932 14.3888 1.63327 14.3125 1.37074C14.2361 1.10821 14.1048 0.865336 13.9275 0.658577C13.7502 0.451817 13.5309 0.286006 13.2846 0.172378C13.0383 0.0587509 12.7707 -3.64705e-05 12.5 1.69745e-08ZM14.3889 20.0455C14.3889 20.2986 14.2894 20.5414 14.1123 20.7204C13.9351 20.8994 13.6949 21 13.4444 21H11.5556C11.3051 21 11.0649 20.8994 10.8877 20.7204C10.7106 20.5414 10.6111 20.2986 10.6111 20.0455C10.6111 19.7923 10.7106 19.5495 10.8877 19.3705C11.0649 19.1915 11.3051 19.0909 11.5556 19.0909H13.4444C13.6949 19.0909 13.9351 19.1915 14.1123 19.3705C14.2894 19.5495 14.3889 19.7923 14.3889 20.0455Z" fill="white"/>
</g>
<defs>
<filter id="filter0_d_199_262" x="0" y="0" width="25" height="29" filterUnits="userSpaceOnUse" color-interpolation-filters="sRGB">
<feFlood flood-opacity="0" result="BackgroundImageFix"/>
<feColorMatrix in="SourceAlpha" type="matrix" values="0 0 0 0 0 0 0 0 0 0 0 0 0 0 0 0 0 0 127 0" result="hardAlpha"/>
<feOffset dy="4"/>
<feGaussianBlur stdDeviation="2"/>
<feComposite in2="hardAlpha" operator="out"/>
<feColorMatrix type="matrix" values="0 0 0 0 0 0 0 0 0 0 0 0 0 0 0 0 0 0 0.25 0"/>
<feBlend mode="normal" in2="BackgroundImageFix" result="effect1_dropShadow_199_262"/>
<feBlend mode="normal" in="SourceGraphic" in2="effect1_dropShadow_199_262" result="shape"/>
</filter>
</defs>
</svg>
